<svg xmlns="http://www.w3.org/2000/svg" width="768" height="537" viewBox="0 0 192 134.25">
  <title>iso template 2x2, tile 64x32 (2:1)</title>
  <!-- viewBox 1 unit = base unit 1. ArtBox size=(192,134.25) anchor=(96,92.65) -->
  <g id="guides-angle" stroke="#c9d8ef" stroke-width="0.4" fill="none">
    <line x1="0" y1="12.65" x2="192" y2="-83.35"/><line x1="0" y1="-83.35" x2="192" y2="12.65"/><line x1="0" y1="44.65" x2="192" y2="-51.35"/><line x1="0" y1="-51.35" x2="192" y2="44.65"/><line x1="0" y1="76.65" x2="192" y2="-19.35"/><line x1="0" y1="-19.35" x2="192" y2="76.65"/><line x1="0" y1="108.65" x2="192" y2="12.65"/><line x1="0" y1="12.65" x2="192" y2="108.65"/><line x1="0" y1="140.65" x2="192" y2="44.65"/><line x1="0" y1="44.65" x2="192" y2="140.65"/><line x1="0" y1="172.65" x2="192" y2="76.65"/><line x1="0" y1="76.65" x2="192" y2="172.65"/><line x1="0" y1="204.65" x2="192" y2="108.65"/><line x1="0" y1="108.65" x2="192" y2="204.65"/><line x1="0" y1="236.65" x2="192" y2="140.65"/><line x1="0" y1="140.65" x2="192" y2="236.65"/><line x1="0" y1="268.65" x2="192" y2="172.65"/><line x1="0" y1="172.65" x2="192" y2="268.65"/>
  </g>
  <g id="reference-cube" stroke="#7aa0d8" stroke-width="0.7" fill="none">
    <line x1="64" y1="92.65" x2="96" y2="108.65"/><line x1="96" y1="108.65" x2="128" y2="92.65"/><line x1="64" y1="92.65" x2="64" y2="60.65"/><line x1="96" y1="108.65" x2="96" y2="76.65"/><line x1="128" y1="92.65" x2="128" y2="60.65"/><line x1="96" y1="44.65" x2="128" y2="60.65"/><line x1="128" y1="60.65" x2="96" y2="76.65"/><line x1="96" y1="76.65" x2="64" y2="60.65"/><line x1="64" y1="60.65" x2="96" y2="44.65"/>
  </g>
  <g id="footprint">
    <polygon points="96,60.65 160,92.65 96,124.65 32,92.65" fill="#f5c6d3" fill-opacity="0.25" stroke="#e2547f" stroke-width="0.9"/>
  </g>
  <g id="anchor" stroke="#ff2856" stroke-width="0.9">
    <line x1="93" y1="92.65" x2="99" y2="92.65"/><line x1="96" y1="89.65" x2="96" y2="95.65"/>
  </g>
  <g id="labels" font-family="sans-serif" font-size="3.4" fill="#555">
    <text x="1.5" y="5">footprint 2x2, tile 64x32 (2:1)</text>
    <text x="1.5" y="10">ArtBox size = (192, 134.25)</text>
    <text x="1.5" y="15" fill="#e2547f">anchor = (96, 92.65)</text>
  </g>
</svg>
